<svg xmlns="http://www.w3.org/2000/svg" width="16" height="16" viewBox="0 0 16 15.2" fill="none">
<path fill="#4f545c" fill-rule="evenodd" d="m16 7.6c0 .79-1.28 1.38-1.52 2.09s.44 2 0 2.59-1.84.35-2.46.8-.79 1.84-1.54 2.09-1.67-.8-2.47-.8-1.75 1-2.47.8-.92-1.64-1.54-2.09-2-.18-2.46-.8.23-1.84 0-2.59-1.54-1.3-1.54-2.09 1.28-1.38 1.52-2.09-.44-2 0-2.59 1.85-.35 2.48-.8.78-1.84 1.53-2.12 1.67.83 2.47.83 1.75-1 2.47-.8.91 1.64 1.53 2.09 2 .18 2.46.8-.23 1.84 0 2.59 1.54 1.3 1.54 2.09z"></path>
<path d="M808.092 225.421C818.033 227.751 825.722 232.566 831.159 239.867C836.751 247.012 839.547 255.323 839.547 264.798C839.547 279.244 834.732 290.428 825.101 298.35C815.626 306.117 801.956 310 784.093 310H697.65V145.036H781.763C798.539 145.036 811.742 148.686 821.373 155.987C831.004 163.288 835.819 173.928 835.819 187.908C835.819 197.539 833.256 205.694 828.13 212.373C823.159 218.897 816.48 223.246 808.092 225.421ZM749.376 209.344H769.414C774.074 209.344 777.491 208.412 779.666 206.548C781.996 204.684 783.161 201.81 783.161 197.927C783.161 193.888 781.996 190.937 779.666 189.073C777.491 187.054 774.074 186.044 769.414 186.044H749.376V209.344ZM772.909 268.526C777.569 268.526 780.986 267.672 783.161 265.963C785.491 264.099 786.656 261.148 786.656 257.109C786.656 249.187 782.074 245.226 772.909 245.226H749.376V268.526H772.909ZM937.312 311.631C921.779 311.631 907.488 307.981 894.44 300.68C881.548 293.379 871.296 283.283 863.684 270.39C856.073 257.497 852.267 242.974 852.267 226.819C852.267 210.664 856.073 196.141 863.684 183.248C871.296 170.355 881.548 160.336 894.44 153.191C907.488 145.89 921.779 142.24 937.312 142.24C952.846 142.24 967.059 145.89 979.951 153.191C992.844 160.336 1003.02 170.355 1010.47 183.248C1018.09 196.141 1021.89 210.664 1021.89 226.819C1021.89 242.974 1018.09 257.497 1010.47 270.39C1003.02 283.283 992.766 293.379 979.718 300.68C966.826 307.981 952.69 311.631 937.312 311.631ZM937.312 263.4C947.564 263.4 955.486 260.138 961.078 253.614C966.67 246.935 969.466 238.003 969.466 226.819C969.466 215.48 966.67 206.548 961.078 200.024C955.486 193.345 947.564 190.005 937.312 190.005C926.905 190.005 918.905 193.345 913.313 200.024C907.721 206.548 904.925 215.48 904.925 226.819C904.925 238.003 907.721 246.935 913.313 253.614C918.905 260.138 926.905 263.4 937.312 263.4ZM1170.1 145.036V186.044H1126.3V310H1074.57V186.044H1031.23V145.036H1170.1ZM1342.34 310H1290.61L1235.85 227.052V310H1184.13V145.036H1235.85L1290.61 229.382V145.036H1342.34V310ZM1471.49 285.069H1416.5L1408.34 310H1354.05L1414.4 145.036H1474.05L1534.16 310H1479.64L1471.49 285.069ZM1458.9 246.158L1443.99 200.257L1429.08 246.158H1458.9ZM1744.2 145.036V310H1692.71V227.751L1667.31 310H1623.04L1597.64 227.751V310H1545.92V145.036H1609.29L1645.64 244.061L1681.06 145.036H1744.2ZM1819.26 186.277V206.548H1870.52V245.459H1819.26V268.759H1877.51V310H1767.54V145.036H1877.51V186.277H1819.26Z" fill="white"/>
<path d="M7.4,11.17,4,8.62,5,7.26l2,1.53L10.64,4l1.36,1Z" fill="hsl(0, calc(var(--saturation-factor, 1) * 0%), 100%)"></path>
<rect x="577" y="81" width="11" height="338" rx="5.5" fill="white" fill-opacity="0.32"/>
</svg>